<mxfile host="app.diagrams.net" agent="Mozilla/5.0 (X11; Linux x86_64) AppleWebKit/537.36 (KHTML, like Gecko) Chrome/127.0.0.0 Safari/537.36" version="24.7.7">
  <diagram name="Page-1" id="kFTzcDT3N0DjMDEGWnrk">
    <mxGraphModel dx="2087" dy="965" grid="1" gridSize="10" guides="1" tooltips="1" connect="1" arrows="1" fold="1" page="0" pageScale="1" pageWidth="850" pageHeight="1100" background="#000000" math="0" shadow="0">
      <root>
        <mxCell id="0" />
        <mxCell id="1" parent="0" />
        <mxCell id="ob5LyBmQ4TH0D7thP4cj-11" style="edgeStyle=orthogonalEdgeStyle;rounded=0;orthogonalLoop=1;jettySize=auto;html=1;exitX=1;exitY=1;exitDx=0;exitDy=0;" edge="1" parent="1" source="ob5LyBmQ4TH0D7thP4cj-1" target="ob5LyBmQ4TH0D7thP4cj-3">
          <mxGeometry relative="1" as="geometry" />
        </mxCell>
        <mxCell id="ob5LyBmQ4TH0D7thP4cj-12" style="edgeStyle=orthogonalEdgeStyle;rounded=0;orthogonalLoop=1;jettySize=auto;html=1;entryX=0;entryY=0.5;entryDx=0;entryDy=0;" edge="1" parent="1" source="ob5LyBmQ4TH0D7thP4cj-1" target="ob5LyBmQ4TH0D7thP4cj-3">
          <mxGeometry relative="1" as="geometry" />
        </mxCell>
        <mxCell id="ob5LyBmQ4TH0D7thP4cj-14" style="edgeStyle=orthogonalEdgeStyle;rounded=0;orthogonalLoop=1;jettySize=auto;html=1;entryX=0.5;entryY=0;entryDx=0;entryDy=0;strokeColor=#0c0c0e;curved=1;" edge="1" parent="1" source="ob5LyBmQ4TH0D7thP4cj-1" target="ob5LyBmQ4TH0D7thP4cj-3">
          <mxGeometry relative="1" as="geometry" />
        </mxCell>
        <mxCell id="ob5LyBmQ4TH0D7thP4cj-1" value="Gesellschaft&amp;nbsp;&amp;nbsp;" style="ellipse;whiteSpace=wrap;html=1;" vertex="1" parent="1">
          <mxGeometry x="-310" y="330" width="100" height="100" as="geometry" />
        </mxCell>
        <mxCell id="ob5LyBmQ4TH0D7thP4cj-2" value="nr (ID)" style="ellipse;whiteSpace=wrap;html=1;" vertex="1" parent="1">
          <mxGeometry x="-310" y="550" width="120" height="80" as="geometry" />
        </mxCell>
        <mxCell id="ob5LyBmQ4TH0D7thP4cj-13" style="edgeStyle=orthogonalEdgeStyle;rounded=0;orthogonalLoop=1;jettySize=auto;html=1;exitX=0;exitY=1;exitDx=0;exitDy=0;entryX=1;entryY=0.5;entryDx=0;entryDy=0;" edge="1" parent="1" source="ob5LyBmQ4TH0D7thP4cj-3" target="ob5LyBmQ4TH0D7thP4cj-2">
          <mxGeometry relative="1" as="geometry" />
        </mxCell>
        <mxCell id="ob5LyBmQ4TH0D7thP4cj-3" value="Flugzeug" style="rounded=0;whiteSpace=wrap;html=1;" vertex="1" parent="1">
          <mxGeometry x="-100" y="430" width="180" height="90" as="geometry" />
        </mxCell>
        <mxCell id="ob5LyBmQ4TH0D7thP4cj-4" value="" style="rhombus;whiteSpace=wrap;html=1;" vertex="1" parent="1">
          <mxGeometry x="180" y="430" width="100" height="100" as="geometry" />
        </mxCell>
        <mxCell id="ob5LyBmQ4TH0D7thP4cj-5" value="Kervin" style="rounded=0;whiteSpace=wrap;html=1;" vertex="1" parent="1">
          <mxGeometry x="380" y="430" width="170" height="90" as="geometry" />
        </mxCell>
        <mxCell id="ob5LyBmQ4TH0D7thP4cj-7" value="Endstandpunkt" style="ellipse;whiteSpace=wrap;html=1;" vertex="1" parent="1">
          <mxGeometry x="570" y="610" width="120" height="80" as="geometry" />
        </mxCell>
        <mxCell id="ob5LyBmQ4TH0D7thP4cj-8" value="Aufstandpunkt" style="ellipse;whiteSpace=wrap;html=1;" vertex="1" parent="1">
          <mxGeometry x="670" y="435" width="120" height="80" as="geometry" />
        </mxCell>
        <mxCell id="ob5LyBmQ4TH0D7thP4cj-9" value="Datum" style="ellipse;whiteSpace=wrap;html=1;" vertex="1" parent="1">
          <mxGeometry x="630" y="250" width="120" height="80" as="geometry" />
        </mxCell>
        <mxCell id="ob5LyBmQ4TH0D7thP4cj-10" value="" style="endArrow=classic;html=1;rounded=0;" edge="1" parent="1">
          <mxGeometry width="50" height="50" relative="1" as="geometry">
            <mxPoint x="400" y="590" as="sourcePoint" />
            <mxPoint x="450" y="540" as="targetPoint" />
          </mxGeometry>
        </mxCell>
        <mxCell id="ob5LyBmQ4TH0D7thP4cj-15" value="" style="endArrow=classic;startArrow=classic;html=1;rounded=0;entryX=0;entryY=0;entryDx=0;entryDy=0;strokeWidth=2;strokeColor=#FFFFFF;" edge="1" parent="1" source="ob5LyBmQ4TH0D7thP4cj-1" target="ob5LyBmQ4TH0D7thP4cj-3">
          <mxGeometry width="50" height="50" relative="1" as="geometry">
            <mxPoint x="400" y="590" as="sourcePoint" />
            <mxPoint x="450" y="540" as="targetPoint" />
          </mxGeometry>
        </mxCell>
        <mxCell id="ob5LyBmQ4TH0D7thP4cj-16" value="" style="endArrow=classic;startArrow=classic;html=1;rounded=0;entryX=0.007;entryY=0.905;entryDx=0;entryDy=0;strokeWidth=2;strokeColor=#FFFFFF;exitX=1;exitY=0;exitDx=0;exitDy=0;entryPerimeter=0;" edge="1" parent="1" source="ob5LyBmQ4TH0D7thP4cj-2" target="ob5LyBmQ4TH0D7thP4cj-3">
          <mxGeometry width="50" height="50" relative="1" as="geometry">
            <mxPoint x="-202" y="405" as="sourcePoint" />
            <mxPoint x="-90" y="440" as="targetPoint" />
          </mxGeometry>
        </mxCell>
        <mxCell id="ob5LyBmQ4TH0D7thP4cj-17" value="" style="endArrow=classic;startArrow=classic;html=1;rounded=0;strokeWidth=2;strokeColor=#FFFFFF;exitX=1;exitY=0.5;exitDx=0;exitDy=0;" edge="1" parent="1" source="ob5LyBmQ4TH0D7thP4cj-3" target="ob5LyBmQ4TH0D7thP4cj-4">
          <mxGeometry width="50" height="50" relative="1" as="geometry">
            <mxPoint x="-192" y="415" as="sourcePoint" />
            <mxPoint x="170" y="470" as="targetPoint" />
          </mxGeometry>
        </mxCell>
        <mxCell id="ob5LyBmQ4TH0D7thP4cj-18" value="" style="endArrow=classic;startArrow=classic;html=1;rounded=0;entryX=0;entryY=0.5;entryDx=0;entryDy=0;strokeWidth=2;strokeColor=#FFFFFF;exitX=1;exitY=0.5;exitDx=0;exitDy=0;" edge="1" parent="1" source="ob5LyBmQ4TH0D7thP4cj-4" target="ob5LyBmQ4TH0D7thP4cj-5">
          <mxGeometry width="50" height="50" relative="1" as="geometry">
            <mxPoint x="-182" y="425" as="sourcePoint" />
            <mxPoint x="-70" y="460" as="targetPoint" />
          </mxGeometry>
        </mxCell>
        <mxCell id="ob5LyBmQ4TH0D7thP4cj-20" value="" style="endArrow=classic;startArrow=classic;html=1;rounded=0;entryX=1;entryY=0;entryDx=0;entryDy=0;strokeWidth=2;strokeColor=#FFFFFF;exitX=0.29;exitY=0.915;exitDx=0;exitDy=0;exitPerimeter=0;" edge="1" parent="1" source="ob5LyBmQ4TH0D7thP4cj-9" target="ob5LyBmQ4TH0D7thP4cj-5">
          <mxGeometry width="50" height="50" relative="1" as="geometry">
            <mxPoint x="-172" y="435" as="sourcePoint" />
            <mxPoint x="-60" y="470" as="targetPoint" />
          </mxGeometry>
        </mxCell>
        <mxCell id="ob5LyBmQ4TH0D7thP4cj-21" value="" style="endArrow=classic;startArrow=classic;html=1;rounded=0;entryX=1;entryY=0.5;entryDx=0;entryDy=0;strokeWidth=2;strokeColor=#FFFFFF;" edge="1" parent="1" source="ob5LyBmQ4TH0D7thP4cj-8" target="ob5LyBmQ4TH0D7thP4cj-5">
          <mxGeometry width="50" height="50" relative="1" as="geometry">
            <mxPoint x="-162" y="445" as="sourcePoint" />
            <mxPoint x="-50" y="480" as="targetPoint" />
          </mxGeometry>
        </mxCell>
        <mxCell id="ob5LyBmQ4TH0D7thP4cj-22" value="" style="endArrow=classic;startArrow=classic;html=1;rounded=0;entryX=1;entryY=1;entryDx=0;entryDy=0;strokeWidth=2;strokeColor=#FFFFFF;exitX=0.241;exitY=0.077;exitDx=0;exitDy=0;exitPerimeter=0;" edge="1" parent="1" source="ob5LyBmQ4TH0D7thP4cj-7" target="ob5LyBmQ4TH0D7thP4cj-5">
          <mxGeometry width="50" height="50" relative="1" as="geometry">
            <mxPoint x="-152" y="455" as="sourcePoint" />
            <mxPoint x="-40" y="490" as="targetPoint" />
          </mxGeometry>
        </mxCell>
      </root>
    </mxGraphModel>
  </diagram>
</mxfile>
